<svg xmlns="http://www.w3.org/2000/svg" width="19" height="16">
    <path fill="#8895BB" fill-rule="evenodd" d="M17.675 5.137L9.24 9.187a.55.55 0 0 1-.236.057.566.566 0 0 1-.242-.057L.328 5.137a.576.576 0 0 1 0-1.034L8.762.053a.556.556 0 0 1 .478 0l8.435 4.05a.575.575 0 0 1 0 1.034zM.787 7.487l.019.009 8.198 3.924 8.193-3.935a.564.564 0 0 1 .756.277.58.58 0 0 1-.272.768l-8.435 4.05a.554.554 0 0 1-.242.04.566.566 0 0 1-.242-.057L.328 8.53a.575.575 0 0 1-.284-.755c.127-.288.459-.417.743-.288zm.019 3.368l8.198 3.958 8.193-3.935a.557.557 0 0 1 .753.26.574.574 0 0 1-.256.764l-.019.009-8.429 4.045a.569.569 0 0 1-.242.04.566.566 0 0 1-.242-.057l-8.434-4.05a.576.576 0 0 1-.256-.765.558.558 0 0 1 .734-.269z"/>
</svg>
