<svg xmlns="http://www.w3.org/2000/svg" width="18" height="14">
    <path fill="#B6BDCB" fill-rule="evenodd" d="M8.999 13.217a9.672 9.672 0 0 1-2.771-.407l1.743-1.776c.331.086.671.146 1.028.146 2.259 0 4.091-1.825 4.091-4.074 0-.387-.071-.754-.173-1.109l2.509-2.555a9.689 9.689 0 0 1 2.573 3.664 9.675 9.675 0 0 1-9 6.111zm.476-3.714l1.936-1.972a2.44 2.44 0 0 1-1.936 1.972zm-6.84 2.645L13.949.625l1.414 1.44L4.05 13.588l-1.415-1.44zm5.889-7.439L6.588 6.682a2.442 2.442 0 0 1 1.936-1.973zm.475-1.676c-2.258 0-4.09 1.825-4.09 4.073 0 .388.072.755.173 1.11l-2.509 2.555A9.685 9.685 0 0 1 0 7.106a9.675 9.675 0 0 1 11.771-5.703l-1.743 1.776a4.064 4.064 0 0 0-1.029-.146z"/>
</svg>
